<svg xmlns="http://www.w3.org/2000/svg"><symbol id="space-1" viewBox="0 0 196 224"><path d="M98 2.4l94.9 54.8v109.6L98 221.6 3.1 166.8V57.2zM46.7 157l8.6-4.5h85.2l8.6 4.5a2 2 0 0 0 2.4-.5l4.1-6a1.8 1.8 0 0 0 0-2.1l-14.8-17.7h9.2a1.7 1.7 0 0 0 1.8-1.8V116a1.7 1.7 0 0 0-1.8-1.8h-10.4a45.9 45.9 0 0 0 2-13.7 42.6 42.6 0 0 0-85.2 0 49.4 49.4 0 0 0 2 13.7H48a1.7 1.7 0 0 0-1.8 1.8v12.9a1.7 1.7 0 0 0 1.8 1.8h7.3l-14.9 17.7a2 2 0 0 0-.2 2.1l4.2 6a1.9 1.9 0 0 0 2.3.5zm30.2-20l-30.4 16-2.5-3.6 15.8-18.7h11.9zm71.3-19.2v9.3H49.8v-9.3zM60 100.5a39 39 0 0 1 78 0 45.2 45.2 0 0 1-2.2 13.7H62.2c-1.8-4.2-2.2-9-2.2-13.7zm26.8 48.4H62.4l17.1-9zm32.8-18.2l-15.1 18.2h-13l-15.1-18.2zm14 18.2h-24.4l7.3-9zm18.4.7l-2.5 3.4-30.6-16 5.4-6.3h11.9z"/></symbol><symbol id="space-3" viewBox="0 0 196 224"><path d="M98 2.4l94.9 54.8v109.6L98 221.6 3.1 166.8V57.2zm52 150.1a1.7 1.7 0 0 0 1.8-1.8v-21.8h23.8a1.8 1.8 0 1 0 0-3.6h-13.5v-11.7a1.7 1.7 0 0 0-1.8-1.8h-7a57 57 0 0 0-54.8-43.7c-.3-.2-.5-.2-.7 0a57.2 57.2 0 0 0-55.1 43.7h-7a1.7 1.7 0 0 0-1.8 1.8v11.7H20.4a1.8 1.8 0 1 0 0 3.6h23.8v21.8a1.7 1.7 0 0 0 1.8 1.8zm8.5-37.1v9.9h-121v-9.9zm-92.7-3.6H46.5C52.1 90 71.4 73.3 94.4 71.9zm30.4 17.1v20H47.8v-20zm0-17.1H70.3l25.9-36.3zm53.3 0H99.8V71.7a53.6 53.6 0 0 1 49.7 40.1zm-41.6 17.1v20h-8.1v-20zm40.3 0v20h-36.7v-20z"/></symbol><symbol id="space-2" viewBox="0 0 196 224"><path d="M98 2.4l94.9 54.8v109.6L98 221.6 3.1 166.8V57.2zm55.1 150.1a1.8 1.8 0 1 0 0-3.6h-9v-11.3h9a1.7 1.7 0 0 0 1.8-1.8v-35.5a1.7 1.7 0 0 0-1.8-1.8h-11.9c-.9-25.6-20-39.6-43.2-39.6s-42.3 14-43.2 39.6H42.9a1.7 1.7 0 0 0-1.8 1.8v35.5a1.7 1.7 0 0 0 1.8 1.8h9v11.3h-9a1.8 1.8 0 1 0 0 3.6zm-1.8-50.4V134H44.7v-31.9zM67 137.6v11.3H55.5v-11.3zm31-75.1c21.1 0 38.7 12.8 39.6 36H58.4c.9-23.2 18.5-36 39.6-36zm-9.4 75.1v11.3h-18v-11.3zm15.2 0v11.3H92.2v-11.3zm39-14.1a1.9 1.9 0 0 0-1.8-1.8H97.1a1.8 1.8 0 0 0 0 3.6H141a1.9 1.9 0 0 0 1.8-1.8zm-17.4 14.1v11.3h-18v-11.3zm15.1 0v11.3H129v-11.3z"/></symbol></svg>